# xmcd CD database file
#
# Track frame offsets:
#	150
#	4136
#	23501
#	39643
#	62117
#	84437
#	99940
#	115361
#	131363
#	149443
#	168039
#
# Disc length: 2319 seconds
#
# Revision: 0
# Processed by: cddbd v1.5.2PL0 Copyright (c) Steve Scherf et al.
# Submitted via: CDex 1.70beta2
#
DISCID=82090d0b
DTITLE=Jean Charles - Jean Charles
DYEAR=2006
DGENRE=New Age
TTITLE0=Muita Voz
TTITLE1=A Palavra
TTITLE2=Canção de Amor
TTITLE3=Até Quando
TTITLE4=Coragem e Fé
TTITLE5=Alma Irmã
TTITLE6=O Chamado
TTITLE7=Uma Prece
TTITLE8=O Ser Maior
TTITLE9=Perdoa
TTITLE10=A melhor Escolha
EXTD=YEAR: 2006
EXTT0=
EXTT1=
EXTT2=
EXTT3=
EXTT4=
EXTT5=
EXTT6=
EXTT7=
EXTT8=
EXTT9=
EXTT10=
PLAYORDER=
